<?xml version="1.0" encoding="utf-8"?>
<!-- Generator: Adobe Illustrator 18.0.0, SVG Export Plug-In . SVG Version: 6.00 Build 0)  -->
<!DOCTYPE svg PUBLIC "-//W3C//DTD SVG 1.1//EN" "http://www.w3.org/Graphics/SVG/1.1/DTD/svg11.dtd">
<svg version="1.1" id="Calque_1" xmlns="http://www.w3.org/2000/svg" xmlns:xlink="http://www.w3.org/1999/xlink" x="0px" y="0px"
	 viewBox="0 0 174 138.7" enable-background="new 0 0 174 138.7" xml:space="preserve">
<g>
	<path d="M96.1,48.2c-4.1,1-7.8,1.9-11.7,2.9c-0.4-0.7-0.8-1.4-1.1-2C77.2,34,65.2,28,49.3,31.9C35,35.3,29.1,45.8,26.5,59
		c-2,10.2-1.2,20.5,2,30.3c7.3,22.1,32.1,24.1,44.8,15.6c5.4-3.6,8.5-9,10.7-15c0.6-1.6,1.1-3.3,1.7-5.1c4,1.1,7.8,2.1,11.6,3.1
		c-1.4,14.7-15.3,29.2-30.6,31.1c-6.8,0.8-14,0.7-20.8-0.3c-14.3-2.1-23.2-11.5-28.4-24.4c-6.1-15.1-6.5-30.6-1.1-46.1
		c6.9-20,26.8-29.5,46-27.6C79,22.3,90,30.7,95.6,46.3C95.8,46.7,95.8,47.2,96.1,48.2z"/>
	<path d="M148.3,40.4c3.9-1,7.1-1.8,10.5-2.6c0,1,0.1,1.7,0.1,2.5c0.1,8.4,0.1,8.4-7.9,10.9c-1.1,0.3-2.5,1.8-2.5,2.8
		c-0.2,8.7-0.1,17.5-0.1,26.7c3.6-0.8,6.9-1.6,10.3-2.4c0.1,0.9,0.1,1.6,0.1,2.4c0.1,8.5,0.2,8.6-7.8,10.8c-2.1,0.6-2.8,1.5-2.7,3.6
		c0.1,6,0,11.9,0,18c-1.6,0-2.8,0-4.4,0c0-6.4,0-12.7,0-19.7c-7.1,2-13.7,3.7-20.2,5.7c-0.7,0.2-1.3,2.2-1.4,3.3
		c-0.1,6.2-0.1,12.5-0.1,18.9c-1.5,0.1-2.7,0.2-4.3,0.3c0-7,0-13.8,0-21.1c-3.7,0.9-6.9,1.7-10.4,2.5c0-3.8,0-7.3,0-11.1
		c0.4-0.1,1-0.3,1.5-0.5c8.7-2.6,8.7-2.6,8.7-11.8c0-6.4,0-12.7,0-19.6c-3.6,0.8-6.7,1.6-10.2,2.4c0-3.7,0-7.1,0-11
		c2.4-0.7,5-1.5,7.6-2.1c2.1-0.5,2.8-1.5,2.7-3.6c-0.1-5.8-0.1-11.7-0.1-17.8c1.5-0.1,2.7-0.1,4.4-0.2c0,6.5,0,12.8,0,19.7
		c7-1.9,13.5-3.5,19.9-5.5c0.9-0.3,1.7-2.2,1.7-3.4c0.2-6.2,0.1-12.4,0.1-18.9c1.6,0,2.8,0,4.4,0C148.3,26.4,148.3,33.1,148.3,40.4z
		 M143.9,53.6c-0.7-0.2-0.9-0.4-1.1-0.3c-4,1-8,2-11.9,3c-8.5,2.3-8.5,2.3-8.5,11.2c0,6.6,0,13.1,0,20.2c7.1-1.8,13.5-3.5,20-5.3
		c0.6-0.2,1.5-1.1,1.6-1.7C143.9,71.6,143.9,62.6,143.9,53.6z"/>
</g>
</svg>
