<?xml version="1.0" encoding="utf-8"?>
<!-- Generator: Adobe Illustrator 18.0.0, SVG Export Plug-In . SVG Version: 6.00 Build 0)  -->
<!DOCTYPE svg PUBLIC "-//W3C//DTD SVG 1.1//EN" "http://www.w3.org/Graphics/SVG/1.1/DTD/svg11.dtd">
<svg version="1.1" id="Calque_1" xmlns="http://www.w3.org/2000/svg" xmlns:xlink="http://www.w3.org/1999/xlink" x="0px" y="0px"
	 viewBox="0 0 423.8 495.8" enable-background="new 0 0 423.8 495.8" xml:space="preserve">
<g>
	<path d="M179.9,388.8c-49.3,0-98.7,0-148,0C12.8,388.7,0,375.8,0,356.6c0-41.3,0-82.7,0-124C0,214,13.1,201,31.9,201
		c98.5,0,197,0,295.5,0c19.5,0,32.4,12.8,32.4,32.1c0,41.2,0,82.3,0,123.5c0,19.4-12.8,32.1-32.4,32.1
		C278.2,388.8,229.1,388.8,179.9,388.8z M297.2,254.2c-14.6-6.5-29.2-9.1-44.5-5.5c-17.3,4.1-25.5,17.1-21.8,34.4
		c1.7,8.2,6.9,14,14.1,17.8c6.9,3.7,14,6.9,21,10.5c3.1,1.6,5.7,3.9,4.7,7.9c-1,4-4.3,5.4-8,5.4c-3.8,0-7.7,0.2-11.4-0.7
		c-7.1-1.7-14-4-21.4-6.2c0,6.2,0.2,12.4-0.1,18.7c-0.1,3.3,1.2,4.7,4.1,5.8c12.2,4.5,24.7,5.5,37.3,2.8c4.9-1,9.8-3.2,14.1-5.9
		c15.3-9.6,17.1-36.2-0.3-46.5c-3.6-2.1-7.3-4-11-5.9c-4.4-2.3-9.2-4.1-13.3-6.9c-2-1.3-4.4-4.9-3.9-6.5c0.7-2.2,3.9-3.8,6.4-4.9
		c1.7-0.7,4-0.5,5.9-0.1c6.7,1.5,13.4,3.3,20.5,5.1C292,267.4,294.6,261,297.2,254.2z M151.8,318c0,6.1,0.2,12.4-0.1,18.7
		c-0.1,3,1,4.4,3.7,5.4c12.5,5,25.3,5.8,38.2,3c4.8-1,9.5-3.2,13.6-5.8c15.4-9.7,17.2-36.6-0.8-46.7c-4.8-2.7-9.7-5-14.6-7.6
		c-3.4-1.8-7.1-3.2-10-5.5c-1.7-1.3-3.3-4.2-3-6.1c0.3-1.8,3-3.7,5-4.5c2.2-0.8,5-0.8,7.4-0.3c6.7,1.4,13.4,3.3,20.4,5.1
		c2.5-6.3,5-12.7,7.5-19.1c-13.4-7.7-35.2-9.7-48.8-4.5c-10.1,3.8-16.8,10.6-17.9,21.9c-1.2,11.3,2.1,20.8,11.8,27.3
		c3.4,2.3,7.2,4.1,10.9,6c4.4,2.3,9,4.3,13.4,6.6c3,1.6,5.6,4.3,3.9,7.6c-1.2,2.4-4.4,4.6-7,5.1c-3.8,0.8-8,0.5-11.9-0.4
		C166.4,322.6,159.4,320.2,151.8,318z M141.7,254.3c-8.9-4.8-18.1-6.5-27.7-7.1c-24-1.4-42.1,11.9-47.5,35.3
		c-3,13-2.3,25.8,2.3,38.4c4,11.1,11.7,19.1,22.9,22.8c14.6,4.9,29.2,3.7,43.6-1.5c1.1-0.4,2.5-1.6,2.6-2.5
		c0.2-6.7,0.1-13.4,0.1-20.7c-3.8,1.3-6.7,2.7-9.7,3.3c-5.7,1.1-11.4,2.3-17.2,2.5c-7.9,0.2-13.8-4-16.5-11.5
		c-4-11-3.9-22.3,0.6-33.2c3.1-7.4,8.9-12,17.2-11c7.2,0.9,14.2,2.9,21.8,4.6C136.5,267.7,139.1,261.1,141.7,254.3z"/>
	<path d="M55.8,185.6c-5.1,0-9.6,0-14.7,0c0-1.8,0-3.6,0-5.3c0-49.7,0-99.3,0-149C41,12.9,53.7,0.1,72.1,0C151.4,0,230.7,0,310,0.1
		c2,0,4.6,1,6,2.4c35.2,34.8,70.3,69.7,105.3,104.7c1.5,1.5,2.3,4.4,2.3,6.6c0.1,90.3,0.1,180.6,0.1,271c0,25.8,0,51.7,0,77.5
		c0,21-12.5,33.5-33.6,33.5c-105.5,0-211,0-316.5,0c-19.9,0-32.7-12.9-32.7-32.9c0-17.5,0-35,0-52.5c0-1.6,0-3.2,0-5.1
		c5.1,0,9.7,0,14.8,0c0,2.4,0,4.5,0,6.6c0,17.2,0,34.3,0,51.5c0,11.3,6.4,17.7,17.6,17.7c97.2,0,194.3,0,291.5,0
		c8.8,0,17.7,0,26.5,0c10.7,0,16.6-5.9,16.6-16.7c0-31.2,0-62.3,0-93.5c0-83.5,0-167,0-250.5c0-7.5-2.2-9.6-9.8-9.6
		c-18.2,0-36.3,0-54.5,0c-19,0-31.6-12.6-31.7-31.6c-0.1-18.5,0-37,0-55.5c0-6-2.8-8.9-8.7-8.9c-77,0-154,0-231,0
		c-10.7,0-16.6,6-16.6,16.8c0,49.2,0,98.3,0,147.5C55.8,181.1,55.8,183.1,55.8,185.6z M384.6,95.9c-18.8-19.3-38.2-39.1-57.7-59.2
		c0,15.5-0.2,30.8,0.1,46c0.1,6.6,6.2,12.8,13,13C355.4,96.2,370.8,95.9,384.6,95.9z"/>
</g>
</svg>
