<?xml version="1.0" encoding="utf-8"?>
<!-- Generator: Adobe Illustrator 18.0.0, SVG Export Plug-In . SVG Version: 6.00 Build 0)  -->
<!DOCTYPE svg PUBLIC "-//W3C//DTD SVG 1.1//EN" "http://www.w3.org/Graphics/SVG/1.1/DTD/svg11.dtd">
<svg version="1.1" id="Calque_1" xmlns="http://www.w3.org/2000/svg" xmlns:xlink="http://www.w3.org/1999/xlink" x="0px" y="0px"
	 viewBox="0 0 90.7 128.2" enable-background="new 0 0 90.7 128.2" xml:space="preserve">
<g>
	<path fill="#020202" d="M47.2,7.7c1.7,1.2,2.9,2.1,4.1,3c1.9,1.5,1.6,3.7,1.2,5.6c-0.5,2.4-2.7,1.1-4.2,1.3c-1.8,0.2-3.7,0.2-5.5,0
		c-1.7-0.2-4.1,1.2-4.4-2.3c-0.4-3.6,1.8-3.6,4.7-3.5C41.3,8.5,37.3,7,38.4,3c0.3-1-0.3-2.6,1.4-2.6c3.8-0.1,7.7-0.3,11.5,0.1
		c2.2,0.2,1.1,2.4,1.3,3.7C53.1,7.5,50,6,47.2,7.7z"/>
	<path fill="#020202" d="M68.3,7.4c1.3,2.4,4.8,3.6,4.3,7.3c-0.3,2.1-0.7,3.3-2.9,2.8c-3.8-0.9-8.6,2.5-11.2-1.7
		c-1.8-3,1.1-4.3,4.7-4c-2.3-3.3-6-5.1-4.9-9.3c0.2-0.9,0-2.1,1.4-2.1c3.8-0.1,7.6-0.1,11.4,0c1.8,0,1.4,1.6,1.3,2.6
		c-0.1,1.3,0.9,3.1-1.5,3.5C70,6.7,68.9,6.1,68.3,7.4z"/>
	<path fill="#020202" d="M18.3,8.9c0-8.7,0-8.7,8.9-8.6c1.7,0,4.4-1.5,5.1,1.3c0.6,2.5,0.9,5.5-3.5,4.9c-1.9-0.2-4.5-1-4.4,2.8
		c0.1,3.5,2.6,2.3,4.3,2.4c2,0.1,3.9-0.4,3.9,2.9c0,3.2-1.7,3-3.8,2.9c-0.7,0-1.3,0-2,0C18.3,17.6,18.3,17.6,18.3,8.9z"/>
	<path d="M86.5,25.5c-27.3,0.2-54.6,0.2-82,0c-3.7,0-4.9,0.7-4.5,4.6c2.7,28,5.3,56,7.7,84c0.3,3.5,1.8,4.5,4.9,5.4
		c10.2,2.9,20.7,4.8,30.6,8.7c1.3,0,2.7,0,4,0c9.7-3.6,19.7-5.8,29.7-8.3c4.2-1,5.8-2.8,6.2-7.2c2.2-27.5,4.8-55,7.5-82.5
		C91,26.1,90.3,25.5,86.5,25.5z M73.4,48.7c-0.1,5-1.8,7.8-6.7,9.4c-6.5,2.2-12.7,5.3-19,8c0.1,0.3,0.1,0.6,0.2,1
		c6.6,0,13.1,0.1,19.7-0.1c2.8-0.1,4.2,0.2,3.8,3.7c-1,8.8-1.7,17.5-2.2,26.3c-0.2,3.8-1.7,5.8-5.4,6.2c-0.2,0-0.3,0.1-0.5,0.1
		c-12.9,6.4-25.6,4.3-38.4-0.8c-2-0.8-3-1.5-3-3.8c0-2.5-0.5-5-0.6-7.4c-0.1-2.3-1.7-5.7,0-6.5c2.7-1.2,6.2-0.6,9.3-0.6
		c1.9,0,1.9,1.8,1.7,3c-0.6,5.1,2.1,6.5,6.5,7.8c6.3,2,11.7-0.1,17.5-1.7c1.6-0.4,1.9-1.3,2.1-2.8c2-12.6,2-12.6-10.7-12.6
		c-8.2,0-16.3-0.1-24.5,0.1c-2.9,0.1-3.4-1-3.9-3.6c-1-5.4,0.4-8.4,6-10.2c6.8-2.2,13.3-5.4,19.7-9.1c-7.9,0-15.8,0-23.8,0
		c-7,0.1-3.4-5.6-4.3-8.5c-1-3.4,2.4-2.2,4-2.2c16.1-0.1,32.3,0,48.4-0.1C72.9,44.4,73.4,45.5,73.4,48.7z"/>
</g>
</svg>
