<?xml version="1.0" encoding="utf-8"?>
<!-- Generator: Adobe Illustrator 18.0.0, SVG Export Plug-In . SVG Version: 6.00 Build 0)  -->
<!DOCTYPE svg PUBLIC "-//W3C//DTD SVG 1.1//EN" "http://www.w3.org/Graphics/SVG/1.1/DTD/svg11.dtd">
<svg version="1.1" id="Calque_1" xmlns="http://www.w3.org/2000/svg" xmlns:xlink="http://www.w3.org/1999/xlink" x="0px" y="0px"
	 viewBox="0 0 165.5 169.7" enable-background="new 0 0 165.5 169.7" xml:space="preserve">
<g>
	<path d="M132.7,134.5c0-3.1,0-5.5,0-8.4c-44.2,0-88.2,0-132.4,0c0-26,0-51.5,0-77.4c55,0,109.9,0,164.8,0c0,11.5,0,22.6,0,34.3
		c-43.2,0-86.1,0-128.8,0c-1.9,8.2-1.6,8.6,6,8.6c38.8,0,77.6,0,116.5,0c2,0,4,0,6.7,0c0,2,0,3.6,0,5.1c0,16.8,0,33.7,0,50.5
		c0,14-8.3,22.4-22.3,22.4c-40.3,0.1-80.6,0-121,0C8.7,169.7,0,160.9,0,147.6c0-4.1,0-8.3,0-13.1C44.5,134.5,88.5,134.5,132.7,134.5
		z"/>
	<path d="M97.5,0.1c2,6.9,3.9,13.6,6.3,21.7c1.9-6.6,3.7-11.7,4.9-17c0.8-3.5,2.1-4.9,5.9-4.8c10.1,0.2,10.2,0,11.9,9.3
		c1.8,10.1,3.3,20.3,4.9,30.9c-4.5,0-8.7,0-13.4,0c-0.7-6.5-1.5-13.1-2.2-19.8c-0.4-0.1-0.7-0.1-1.1-0.2c-1.9,5.6-4,11-5.6,16.7
		c-0.9,3.4-2.8,3.8-5.8,3.8c-3.2,0-4.2-1.3-4.9-4.2C97,31.2,95,26.1,92.2,21.1c-0.8,6.3-1.5,12.6-2.3,19.2c-4.5,0-8.8,0-13.4,0
		c1.6-10.6,2.9-20.9,4.8-31.1c1.7-9.2,2-9.1,11.5-9.1C94.2,0.1,95.7,0.1,97.5,0.1z"/>
	<path d="M0.7,0.3c4.7,0,8.8,0,13.8,0c0,2.8,0.3,5.4-0.1,7.9c-0.6,5,1.5,6.6,6.2,5.8c0.8-0.1,1.6-0.2,3-0.3c0-4.3,0-8.5,0-13.2
		c4.8,0,9,0,13.7,0c0,13,0,26.2,0,39.7c-4.2,0-8.5,0-13.2,0c0-4.5,0-8.9,0-13.7c-3.3,0-6,0-9.3,0c0,4.4,0,8.8,0,13.6
		c-4.9,0-9.3,0-14.1,0C0.7,27,0.7,13.8,0.7,0.3z"/>
	<path d="M50.9,12.7c-3.3,0-5.5,0-8.2,0c0-4.2,0-8,0-12.5c9.5,0,19-0.1,28.4,0.1c0.8,0,2.1,1.6,2.2,2.5c0.3,3.1,0.1,6.2,0.1,9.7
		c-3,0.2-5.4,0.3-8.4,0.4c0,9.1,0,18.2,0,27.4c-4.9,0-9.2,0-14.1,0C50.9,31.4,50.9,22.3,50.9,12.7z"/>
	<path d="M137.8,40.2c0-13.3,0-26.4,0-39.8c4.6,0,9,0,13.9,0c0,9.1,0,18,0,27.5c4.4,0,8.3,0,12.5,0c0,4.3,0,8.1,0,12.3
		C155.7,40.2,147,40.2,137.8,40.2z"/>
</g>
</svg>
