<?xml version="1.0" encoding="utf-8"?>
<!-- Generator: Adobe Illustrator 18.0.0, SVG Export Plug-In . SVG Version: 6.00 Build 0)  -->
<!DOCTYPE svg PUBLIC "-//W3C//DTD SVG 1.1//EN" "http://www.w3.org/Graphics/SVG/1.1/DTD/svg11.dtd">
<svg version="1.1" id="Calque_1" xmlns="http://www.w3.org/2000/svg" xmlns:xlink="http://www.w3.org/1999/xlink" x="0px" y="0px"
	 viewBox="0 0 460.6 460.7" enable-background="new 0 0 460.6 460.7" xml:space="preserve">
<g>
	<path d="M332,396.6c4.7,33.5-21.6,63.8-55,64c-36.7,0.2-73.3,0.1-110,0.1c-36.3,0-72.7,0-109,0c-33.4,0-57.9-24-58-57.4
		C-0.1,337.7,0,272.2,0,206.7c0-49.5,0-99,0.1-148.5C0.1,31.9,14.9,10.2,38.8,3.2c9.1-2.6,19-2.9,28.6-3c31.3-0.3,62.7,0,94-0.1
		c11.2,0,20.6,3.6,26.1,13.5c2.7,5,4.2,11.3,4.3,17.1c0.4,29.5,0.2,59,0.2,88.5c0,2.2-0.1,4.3,0,6.5c0.3,9.7,5.7,15.1,15.4,15.1
		c31.8,0.1,63.7,0,95.5,0.1c14.8,0.1,25.5,8.2,28.9,21.4c0.2,0.8,0.5,1.6,0.5,2.4c0.2,3.5,0.3,7,0.3,10.5c0,9.6,0,19.3,0,29.6
		c-4,0-7.6,0-11.2,0c-85.5,0-171,0-256.5,0c-17.5,0-26.6,9.2-26.6,26.5c-0.1,47.2-0.1,94.3,0,141.5c0,13.8,10.1,23.9,24,23.9
		c76,0,152,0,228,0C304.1,396.6,317.9,396.6,332,396.6z"/>
	<path d="M262.3,230.4c60.7,0,121.3,0,182,0c12.1,0,16.4,4.1,16.4,16.1c0,36.5,0,73,0,109.5c0,10.5-4.7,15.2-15.4,15.2
		c-103.8,0-207.6,0-311.4,0c-18,0-36,0-54,0c-11.1,0-15.9-4.6-15.9-15.7c-0.1-36.5-0.1-73-0.1-109.5c0-10.9,4.7-15.6,15.5-15.6
		C140.3,230.3,201.3,230.4,262.3,230.4C262.3,230.4,262.3,230.4,262.3,230.4z M283.1,280c0.3-0.1,0.7-0.1,1-0.2
		c0.4,1.5,0.9,3.1,1.3,4.6c4.5,17.7,8.9,35.5,13.5,53.2c1.7,6.6,5.4,9.5,10.6,9.6c5.6,0,8.9-2.9,10.7-9.9
		c3.1-11.9,6.1-23.9,9.1-35.8c1.9-7.4,3.8-14.9,5.7-22.3c1,18.5,1,36.7,1,55c0,1.8,0,3.7,0.2,5.5c0.6,4.6,3.6,7.4,7.9,7.4
		c4.3,0.1,7.5-2.7,8-7.3c0.3-2.8,0.3-5.7,0.3-8.5c0-19.5,0-39,0-58.5c0-12.3,1.8-17.5-17.2-16.6c-8.8,0.4-9.7,1-12.1,9.5
		c-4.5,16.5-8.9,33-13.6,50.5c-0.7-2.1-1.2-3.3-1.5-4.5c-3.7-13.6-7.4-27.3-11-40.9c-3.9-14.5-4.5-15-19.3-14.5
		c-8.9,0.3-11.5,2.9-11.5,11.9c0,22.3,0,44.6,0,67c0,2.1,0.3,4.3,0.8,6.4c0.9,3.7,3.7,5.5,7.4,5.5c3.9,0,6.8-1.8,7.7-5.8
		c0.6-2.6,0.8-5.3,0.8-7.9C283.2,315.6,283.1,297.8,283.1,280z M154.3,306.3c0,9.8,0,18.9,0,28c0,8.9,2.8,12.8,9,12.8
		c6.1,0,9-4.1,9-12.9c0-22.5,0-45,0-67.5c0-7.8-3.2-11.9-9-12c-5.8-0.1-9,4-9,11.8c-0.1,6.7,0,13.3,0,20c0,1.4-0.2,2.9-0.3,4.4
		c-13.1,0-25.8,0-38.8,0c0-3.4,0.1-6.4,0-9.4c-0.2-6.6,0-13.3-0.7-19.9c-0.5-4.6-4.5-7.2-8.9-7c-4.5,0.2-7.5,3.1-8.2,7.9
		c-0.2,1.5-0.2,3-0.2,4.5c0,22.7,0,45.3,0,68c0,1.7,0,3.4,0.3,5c0.9,4.5,3.9,7,8.4,7.1c4.2,0.1,7.4-2,8.5-6.3
		c0.6-2.2,0.7-4.6,0.8-6.9c0.1-9.1,0-18.3,0-27.6C128.3,306.3,141,306.3,154.3,306.3z M212.2,271.2c0,2.4,0,4.3,0,6.2
		c0,18.2,0,36.3,0,54.5c0,2.7-0.1,5.4,0.3,8c0.8,4.4,3.6,7.1,8.3,7.2c4.5,0.1,7.7-2,8.7-6.6c0.4-2.1,0.7-4.3,0.7-6.4
		c0.1-11,0-22,0-33c0-9.8,0-19.5,0-29.8c4.1,0,7.5,0,11,0c4-0.1,8,0,11.9-0.4c4-0.5,6.2-3.3,6-7.3c-0.1-4.1-2.7-6.3-6.6-6.9
		c-1-0.1-2-0.2-3-0.2c-19,0-38-0.1-57,0.1c-6.4,0-9.3,2.5-9.2,7.3c0,5,3.1,7.4,9.7,7.5C199,271.2,205,271.2,212.2,271.2z
		 M386.2,330.7c0-3.2,0-5.7,0-8.1c0-17.8,0.1-35.6,0-53.5c0-2.6-0.2-5.4-0.8-7.9c-1.2-5-5.9-7.5-10.9-6c-5.3,1.6-6.4,5.8-6.4,10.6
		c0,22.8-0.1,45.6,0,68.5c0,8.6,3,11.3,11.5,11.4c13.7,0,27.3,0,41,0c1.3,0,2.7,0,4-0.1c4.1-0.4,7-2.3,7.1-6.8
		c0.1-4.4-2.3-6.8-6.4-7.6c-1.8-0.3-3.6-0.3-5.5-0.3C408.8,330.7,397.9,330.7,386.2,330.7z"/>
	<path d="M330.8,115.3c-32.7,0-65.7,0.1-98.7-0.1c-8.7,0-14.6-5.8-14.6-14.5c-0.2-32.8-0.1-65.6,0-98.4c0-0.3,0.2-0.6,0.1-0.2
		C255.2,39.7,292.9,77.5,330.8,115.3z"/>
</g>
</svg>
