<?xml version="1.0" encoding="utf-8"?>
<!-- Generator: Adobe Illustrator 18.0.0, SVG Export Plug-In . SVG Version: 6.00 Build 0)  -->
<!DOCTYPE svg PUBLIC "-//W3C//DTD SVG 1.1//EN" "http://www.w3.org/Graphics/SVG/1.1/DTD/svg11.dtd">
<svg version="1.1" id="Calque_1" xmlns="http://www.w3.org/2000/svg" xmlns:xlink="http://www.w3.org/1999/xlink" x="0px" y="0px"
	 viewBox="0 0 122.1 122.1" enable-background="new 0 0 122.1 122.1" xml:space="preserve">
<g>
	<path d="M122.1,61.1c0,15.2,0,30.5,0,45.7c0,9.8-5.6,15.3-15.4,15.3c-30.5,0-61,0-91.4,0c-9.8,0-15.3-5.5-15.3-15.3
		c0-30.5,0-61,0-91.4C0,5.5,5.5,0,15.4,0c30.5,0,61,0,91.4,0c9.8,0,15.3,5.5,15.3,15.3C122.2,30.6,122.1,45.8,122.1,61.1z
		 M61.1,115.2c15.1,0,30.2,0,45.4,0c6.5,0,8.9-2.3,8.9-8.7c0-30.2,0-60.5,0-90.7c0-6.4-2.4-8.8-8.9-8.8c-30.2,0-60.5,0-90.7,0
		c-6.6,0-8.8,2.2-8.8,8.7c0,30.2,0,60.5,0,90.7c0,6.6,2.2,8.7,8.8,8.8C30.8,115.2,45.9,115.2,61.1,115.2z"/>
	<path d="M70,97.9c3-1.8,5.6-3.4,7.6-4.6c3.4,2.1,6.2,4.3,9.4,5.7c1.6,0.7,4.2,0.8,5.8,0c2-1,4.4-3,4.8-4.9c0.3-1.6-1.6-4.4-3.3-5.5
		c-3.2-2.1-6.9-3.3-10.4-5.1c-5.9-3-10.1-7.2-10.5-14.3c-0.6-10.1,6.6-16.1,16.9-15.9c6.2,0.1,11.4,2.5,14.8,8.7
		c-2.7,1.8-5.3,3.5-7.9,5.2c-1.3-1.2-2.4-2.5-3.7-3.4c-3.1-2-7.4-1.2-9,1.5c-1.6,2.8-0.5,5.8,3.1,7.7c3.9,2,7.9,3.7,11.8,5.7
		c4.8,2.5,8,6.2,9.1,11.7c1.2,6.3-1.4,12.6-6.8,15.8c-8.5,5-22.4,2.9-28.9-4.5C71.7,100.7,71,99.4,70,97.9z"/>
	<path d="M52.4,54.2c3.9,0,7.1,0,10.7,0c0,3.8,0,7.4,0,11c0,9.1,0.1,18.2,0,27.4c-0.2,9.2-4,14.4-11.6,16.1
		c-9.3,2.1-17.2-1.3-21.3-9.6c2.7-1.6,5.4-3.3,8.4-5.1c0.7,0.9,1.4,1.8,2,2.6c2.1,2.6,4.7,3.6,8,2.5c3.2-1,3.8-3.7,3.8-6.6
		c0-11.4,0-22.7,0-34.1C52.4,57.1,52.4,55.7,52.4,54.2z"/>
</g>
</svg>
