<?xml version="1.0" encoding="utf-8"?>
<!-- Generator: Adobe Illustrator 18.0.0, SVG Export Plug-In . SVG Version: 6.00 Build 0)  -->
<!DOCTYPE svg PUBLIC "-//W3C//DTD SVG 1.1//EN" "http://www.w3.org/Graphics/SVG/1.1/DTD/svg11.dtd">
<svg version="1.1" id="Calque_1" xmlns="http://www.w3.org/2000/svg" xmlns:xlink="http://www.w3.org/1999/xlink" x="0px" y="0px"
	 viewBox="0 0 316.6 258.8" enable-background="new 0 0 316.6 258.8" xml:space="preserve">
<path d="M241.2,124.6c-3.2,5.1-6.1,10.4-9.6,15.4c-7.8,11.1-17.9,19.5-30.3,24.9c-9.2,4.1-18.8,7.3-29.1,7.3c-5.7,0-11.3,0.1-17,0
	c-10.2-0.2-19.7-2.9-29.2-6.8c-15.9-6.6-28.7-17.4-39.4-30.2C76.4,123,69.7,108.8,67.3,92.7c-1.7-11.7-1.5-23,1.3-34.4
	c2-8.3,6.5-15.1,11.4-21.8c2.9-3.9,6.3-7.5,10.3-11.1c-8.3,20-8.7,40.1-1.3,60.2c7.4,20.2,21,35.4,38.6,47.3
	c17.8,12.1,37.4,17.2,58.7,16c21.2-1.2,39.3-9.3,53.3-26.3C240.1,123.2,240.6,123.9,241.2,124.6z"/>
<path d="M136.3,8.6c-13.8,33.7-3.1,60.3,25.1,79.2c28.6,19.1,57.2,17.9,82.4-8.6c0.3,0.4,0.6,0.7,1,1.1c-2,4-3.4,8.5-6,12.1
	c-9,12.6-20.7,21.1-36.4,23.5c-13.3,2-26.4,2.7-39.1-2.5c-22-9-37.2-24.3-44-47.7c-4.1-14.1-2.5-27.2,3.8-39.8
	c3.1-6.1,7.6-11.5,11.5-17.2C135.1,8.7,135.7,8.7,136.3,8.6z"/>
<path d="M101.3,222.7c7.2,0.6,6.7,0.5,5.4,7.5c-1,5.7-3.5,7.5-9.2,7.2c-10.5-0.5-21-0.1-31.5-0.2c-13.2-0.1-21.6-6.9-22.2-19.9
	c-0.8-17.2,3.5-33,18.8-43.2c9.7-6.5,20.9-6.8,31.6-2.7c11.4,4.3,17,16,14.1,28.7C106.4,207.7,103.6,215.1,101.3,222.7z M75.9,222.6
	C75.9,222.6,75.9,222.6,75.9,222.6c2,0,4.1,0.4,6-0.1c1.6-0.4,3.6-1.7,4.1-3.1c2.1-6.3,3.9-12.7,5.4-19.2c1.7-7.1,0-12.2-4.4-14.6
	c-5.4-3-13.5-2.1-18,2.6c-7.4,7.6-9,17.2-7.9,27.3c0.5,4.4,3.9,6.8,8.4,7.1C71.6,222.7,73.8,222.6,75.9,222.6z"/>
<path d="M181,216c-0.9,6.4,2.9,7.3,6.9,7.5c6.3,0.3,12.7,0.4,19,0c4.7-0.3,5.8,1.4,4.7,5.7c-2.6,10.2-0.4,8.7-10.7,8.7
	c-7.5,0-15,0.1-22.4-0.8c-9.7-1.2-14.7-6.9-13.7-16.8c0.8-8.1,2.6-16.5,5.9-23.9c5.3-12,16.4-14,28.6-13.9c0.7,0,1.3,0.3,2,0.3
	c12.7,1.5,17.2,6.8,16.3,19.5c-0.9,13.4-1.2,13.6-14.4,13.6C195.9,216,188.6,216,181,216z M201.2,203.6c1-5.2-1.9-6.7-5.6-7.3
	c-5.8-0.9-10.4,2.1-11.5,7.3C189.7,203.6,195.2,203.6,201.2,203.6z"/>
<path d="M134.4,183.5c-1.1,5.8-2,10.6-2.9,15.4c-0.8,4.2-1.7,8.5-2.6,12.7c-2.1,10.5-0.5,12.3,10.3,12.1c2.8-0.1,4.1-0.9,4.7-3.8
	c2.1-10.6,4.7-21.1,6.7-31.7c0.7-4,2.4-5.3,6.3-5c2.9,0.3,5.9,0.1,9.7,0.1c-1.4,6.9-2.6,13-3.9,19.1c-2.2,10.2-4.6,20.4-6.5,30.7
	c-0.7,3.4-2.2,4.2-5.4,4.1c-7.3-0.2-14.6,0-22-0.1c-11.4-0.1-17.7-6.5-16.2-17.7c1.5-11.2,4-22.2,6.4-33.2c0.2-1.1,2.1-2.6,3.4-2.7
	C125.9,183.2,129.6,183.5,134.4,183.5z"/>
<path d="M316.6,177c-7.3,9.7-14.6,19.3-21.9,29c-2.9,3.9-5.6,7.9-8.7,11.5c-3.8,4.6-6.6,9.5-7.4,15.5c-0.4,3.2-2.1,4.6-5.4,4.3
	c-3.8-0.2-7.6-0.1-11-0.1c0-6.5,0.6-12.7-0.2-18.7c-0.8-6-3.1-11.8-5.1-18.6c5.6,0,10.6-0.5,15.4,0.3c1.6,0.3,2.6,3.9,4.3,6.5
	c3.8-5.4,7.7-11,11.6-16.6c1.9-2.7,4.1-5.3,5.6-8.3c2.8-5.6,7-7.4,13-6.7c3,0.4,6.2,0.1,9.3,0.1C316.2,175.9,316.4,176.4,316.6,177z
	"/>
<path d="M173.3,0c-8.7,26.3,1.9,43.6,24.4,54c14.1,6.5,29.7,5.9,41.6-7.3c-0.5,1.7-0.8,3.5-1.6,4.9c-6.6,11.4-16.6,16.7-29.8,17.4
	c-13.2,0.7-24.4-3.8-33.9-12.6c-15.2-14.2-18.4-39.2-3.2-54.7C171.4,1.3,172,0.9,173.3,0z"/>
<path d="M217.2,237.3c1.9-9.3,3.6-17.5,5.3-25.8c1.6-7.8,3.5-15.5,5-23.4c0.7-3.7,2.2-5,6-4.9c8.5,0.2,17,0.1,25.4,0.1
	c10.4,0,13.1,2.5,14,14.5c-9,0-17.9,0.2-26.7-0.1c-4.4-0.2-6,1.3-6.8,5.6c-1.6,9.7-4,19.2-5.7,28.8c-0.7,3.7-2,5.6-6.1,5.2
	C224.5,237.1,221.4,237.3,217.2,237.3z"/>
<path d="M0,258.8c1.1-4.6,1.9-8.5,3-12.2c0.2-0.8,1.7-1.9,2.5-1.9c7,0.5,8.7-4.5,9.9-9.6c1.6-6.4,2.8-13,4.2-19.5
	c0.9-4.2,1.7-8.5,3-12.6c0.4-1.4,2.2-3.1,3.5-3.2c3.9-0.4,7.9-0.2,12.5-0.2c-0.2,2.2-0.2,3.8-0.5,5.3c-2.5,11.7-5,23.4-7.7,35
	c-0.8,3.4-2.1,6.7-3.5,9.8c-2.7,6.1-7.7,8.9-14.3,9C8.8,258.8,4.9,258.8,0,258.8z"/>
<path d="M42.9,183.5c-0.9,4.2-1.3,7.5-2.3,10.6c-0.5,1.3-2.3,2.2-3.8,3c-0.8,0.4-1.9,0.1-2.9,0.1c-10,0-11.6-2.5-7.1-11.8
	c0.4-0.8,1.6-1.8,2.5-1.8C33.5,183.4,37.7,183.5,42.9,183.5z"/>
</svg>
