<?xml version="1.0" encoding="utf-8"?>
<!-- Generator: Adobe Illustrator 18.0.0, SVG Export Plug-In . SVG Version: 6.00 Build 0)  -->
<!DOCTYPE svg PUBLIC "-//W3C//DTD SVG 1.1//EN" "http://www.w3.org/Graphics/SVG/1.1/DTD/svg11.dtd">
<svg version="1.1" id="Calque_1" xmlns="http://www.w3.org/2000/svg" xmlns:xlink="http://www.w3.org/1999/xlink" x="0px" y="0px"
	 viewBox="0 0 422.3 200.1" enable-background="new 0 0 422.3 200.1" xml:space="preserve">
<g>
	<path d="M0,90.9c8.9-0.2,14.9-4.4,17.2-12.7c0.9-3.3,1.2-6.9,1.3-10.3c0.3-11.7,0-23.3,0.5-35C19.7,13.2,30,2.4,49.8,1.4
		c13.9-0.7,27.9-0.1,42.7-0.1c0,1.3,0,3.3,0,5.2c0,39,0,78,0,117c0,14.3,1.9,16.8,16.3,20.7c-1.1,6.4-2.2,12.8-3.4,20.3
		c-7.1-1.4-14-2-20.3-4.2c-11.9-4-17-13.1-17.1-29.2C68,96.3,68,61.5,68,26.7c0-2,0-3.9,0-7c-6.2,0.6-12.1,0.4-17.6,1.8
		c-6.2,1.6-8.7,6.9-8.9,13.1c-0.2,10.3,0,20.7-0.2,31c-0.1,5-0.4,10-1.1,14.9c-1.2,8.3-5.5,14.8-13.2,19.8
		c13.4,8.5,14.1,21.6,14.3,34.8c0.1,9.7-0.1,19.3,0.1,29c0.2,11.1,5.1,15.9,16.3,16.5c1.5,0.1,2.9,0.3,4.6,0.4c0,6.4,0,12.4,0,19
		c-10.6-0.3-20.8-0.6-30.1-6c-9.5-5.5-12.8-14.7-13.2-24.9c-0.5-12-0.3-24-0.5-36c-0.1-3.2-0.2-6.4-0.8-9.4
		c-1.8-8.4-7.1-12.6-17.7-14.1c0-3,0-6.2,0-9.3C0,97.3,0,94.4,0,90.9z"/>
	<path d="M206.6,115.3c-25,0-48.2,0-71.4,0c-1.8,9,4.3,19.8,13.6,24.3c8.5,4.2,17.7,4.6,26.9,3.3c6.5-0.9,13-2.5,19.9-3.8
		c0.9,5.3,2.1,10.8,2.8,16.4c0.1,1.1-1.2,3.2-2.2,3.6c-20.2,6.3-40.4,8.4-60.4-0.6c-10.3-4.7-17.6-12.6-21.8-23.1
		c-7-17.9-7.3-36.2,0.2-54c10.9-26,41.4-37.3,66.9-25.2c12.2,5.8,19.5,15.8,22.2,28.5C205.3,94.3,205.5,104.4,206.6,115.3z
		 M181.3,97.3c-0.2-9.6-2.7-17.7-11.1-22.5c-8-4.6-16.4-4.2-24.1,0.9c-7.6,5-10.7,12.5-11.5,21.6C150.3,97.3,165.4,97.3,181.3,97.3z
		"/>
	<path d="M422.3,91.3c0,6.2,0,12.1,0,18.1c-13.4,2.7-18.2,8.7-18.4,22.5c-0.1,12,0,24-0.3,36c-0.6,18.9-11.2,29.7-30.1,31.2
		c-4.3,0.3-8.6,0.7-13.2,1.1c0-6.6,0-12.7,0-19.2c2.7-0.3,5.5-0.4,8.2-1c8.8-1.8,12.3-5.8,12.5-14.7c0.3-10,0.1-20,0.2-30
		c0.1-5,0.2-10,1-14.9c1.3-8.2,5.2-15,13.3-20c-8.1-5.3-12.6-12.3-13.4-21.1c-0.7-7.4-0.7-15-0.9-22.5c-0.2-6.8,0.1-13.7-0.2-20.5
		c-0.4-10.9-5.2-15.6-16.1-16.2c-1.5-0.1-2.9-0.2-4.7-0.3c0-6.3,0-12.4,0-18.4c22.6-5.7,42.5,8.8,43.3,31.8
		c0.4,11.1,0.2,22.3,0.3,33.5c0,2.3,0.1,4.7,0.4,7C405.7,84.3,409.5,88,422.3,91.3z"/>
	<path d="M364.6,57.1c-1.4,6.2-2.8,12.4-4.1,18.2c-7-1.3-13.8-3.1-20.6-3.6c-5.2-0.4-10.7,0.2-15.7,1.8c-7.8,2.6-9.2,12.1-2.5,17.1
		c3.8,2.9,8.4,4.6,12.7,6.7c7.5,3.5,15.4,6.4,22.5,10.5c11.8,6.9,14.1,18.4,12.6,30.8c-1.3,11-8.1,18.2-18.3,21.6
		c-20,6.7-39.8,5.1-59.9-1.8c1.4-6.9,2.8-13.3,3.9-18.6c11.2,1.6,21.7,3.3,32.4,4.5c3.1,0.4,6.3-0.3,9.4-1c4-0.9,7.5-2.8,8.4-7.5
		c0.9-4.6-0.5-8.5-4.3-10.9c-4-2.6-8.4-4.7-12.8-6.7c-4.8-2.2-9.9-3.9-14.7-6.1c-16-7.4-21.3-17-19.5-34.2c1.3-12,11-21.3,26-24.7
		c14.6-3.3,28.8-1.1,42.8,3C363.4,56.2,363.9,56.7,364.6,57.1z"/>
	<path d="M283.8,57.1c-1.5,6.3-2.9,12.4-4.2,18.2c-7.2-1.3-13.9-3.1-20.8-3.6c-5-0.4-10.4,0.2-15.2,1.7c-8.1,2.5-9.5,12.4-2.7,17.4
		c3.8,2.8,8.5,4.5,12.8,6.6c7.4,3.5,15.1,6.3,22.1,10.3c11.9,6.8,14.2,18.2,12.8,30.7c-1.3,11.1-7.9,18.3-18.1,21.8
		c-19.1,6.5-38.3,5.5-57.3-1c-1-0.4-2.3-2.4-2.2-3.5c0.9-5.7,2.2-11.3,3.3-16.8c7.6,1.7,14.6,3.9,21.7,4.8
		c6.2,0.7,12.6,0.3,18.9-0.2c4.8-0.4,8.6-2.8,9.5-8c0.9-5.1-1.4-9-5.6-11.3c-5.4-3-11.1-5.3-16.7-7.9c-4.5-2.1-9.2-3.8-13.6-6.1
		c-12.6-6.6-17.3-17.4-15.7-31.2c1.4-12.3,8.9-19.7,19.9-24C246,49.8,270,50.8,283.8,57.1z"/>
</g>
</svg>
