<?xml version="1.0" encoding="utf-8"?>
<!-- Generator: Adobe Illustrator 18.0.0, SVG Export Plug-In . SVG Version: 6.00 Build 0)  -->
<!DOCTYPE svg PUBLIC "-//W3C//DTD SVG 1.1//EN" "http://www.w3.org/Graphics/SVG/1.1/DTD/svg11.dtd">
<svg version="1.1" id="Calque_1" xmlns="http://www.w3.org/2000/svg" xmlns:xlink="http://www.w3.org/1999/xlink" x="0px" y="0px"
	 viewBox="0 0 112.5 126.7" enable-background="new 0 0 112.5 126.7" xml:space="preserve">
<g>
	<path d="M41.3,40.6c0,2,0,3.9,0,5.7c0,15.9,0,31.8,0,47.6c0,11.3-7.5,17.4-18.2,13.8c-6.9-2.3-13.3-6.2-19.4-10.2
		c-2-1.3-3.4-4.8-3.4-7.4C-0.1,72.4,0,54.7,0,36.9c0-3.8,1.6-6.7,4.9-8.6c15.6-9,31.1-18,46.7-27c3.1-1.8,6.2-1.7,9.3,0
		c15.7,9,31.4,18.1,47,27.1c3.1,1.8,4.6,4.5,4.6,8c0,18,0,36,0,54c0,3.8-1.8,6.4-4.9,8.2c-15.3,8.9-30.6,17.9-46.1,26.5
		c-2.3,1.3-6,2-8.1,1c-6.4-2.9-12.3-6.8-19-10.7c3-1.4,5.2-2.6,7.4-3.5c0.7-0.3,1.6,0,2.5,0.1c0.5,0.1,0.9,0.5,1.3,0.7
		c3.7,2,7.5,5.6,11.1,5.5c3.7-0.1,7.4-3.7,11.1-5.9c11.2-6.5,22.4-13.1,33.8-19.4c2.2-1.3,3.2-2.7,3.2-5.3
		c-0.1-16.3-0.1-32.5,0-48.8c0-2.6-1-4.1-3.2-5.3C87.3,25.7,73.2,17.5,59.1,9.2c-2-1.2-3.5-1.1-5.5,0c-14.3,8.4-28.8,16.6-43.1,25
		c-1.2,0.7-2.3,2.7-2.3,4C8,55,8,71.8,8.2,88.5c0,1.3,0.9,3.2,2,3.9c3.5,2.4,7.3,4.4,11,6.4c1.2,0.7,2.5,1.2,3.8,1.4
		c4.8,1,8.1-1.7,8.1-6.6c0-15.6,0-31.3,0-46.9C33,39.4,33.1,39.3,41.3,40.6z"/>
	<path d="M46.7,72.1c2.4,0,4.8,0,7.7,0c0.7,7.6,5.9,9.8,12.5,9.9c4.3,0,8.7-0.3,13-1.1c3.2-0.6,5.1-2.9,5-6.5
		c-0.1-3.5-2.6-4.4-5.2-4.9c-5.7-1.1-11.6-1.9-17.3-2.8c-2-0.3-3.9-0.9-5.8-1.5c-4.6-1.4-7.9-4.2-8.5-9.3c-0.7-5.7,1-10.4,5.9-13.6
		c7.6-5,24.6-4.8,31.9,0.5c3.3,2.4,5.2,5.7,5.6,9.7c0.1,1.1-0.6,3.3-1,3.3c-2.2,0.1-5.8,0.4-6.5-0.8c-1.8-3.1-2.9-6.9-6.7-7.4
		c-5-0.7-10.1-0.4-15.2-0.4c-0.8,0-2,0.3-2.4,0.9c-1.2,1.7-2.9,3.7-2.9,5.5c0,1.3,2.2,3.3,3.8,3.7c5.8,1.4,11.7,2.2,17.6,3.3
		c2.1,0.4,4.1,0.9,6.2,1.5c4.9,1.4,8.6,4.1,9.2,9.6c0.7,6.1-1.1,11.5-6.7,14.3c-10.9,5.6-22.2,5.3-33.2,0.2
		C48.4,83.9,45.9,78,46.7,72.1z"/>
</g>
</svg>
