<?xml version="1.0" encoding="utf-8"?>
<!-- Generator: Adobe Illustrator 18.0.0, SVG Export Plug-In . SVG Version: 6.00 Build 0)  -->
<!DOCTYPE svg PUBLIC "-//W3C//DTD SVG 1.1//EN" "http://www.w3.org/Graphics/SVG/1.1/DTD/svg11.dtd">
<svg version="1.1" id="Calque_1" xmlns="http://www.w3.org/2000/svg" xmlns:xlink="http://www.w3.org/1999/xlink" x="0px" y="0px"
	 viewBox="0 0 151.6 84.4" enable-background="new 0 0 151.6 84.4" xml:space="preserve">
<g>
	<path d="M76.1,0c18.5,0.6,36.2,3.6,52.5,12.4c5.7,3.1,11.1,7.3,15.5,12.1c10.4,11.6,9.8,25.2-0.7,36.7
		c-8.5,9.4-19.6,14.5-31.5,17.8c-26.7,7.3-53.3,7.7-79.4-2.5C25,73.7,18,69.3,11.4,64.7C-0.5,56.5-5.3,36.8,8,23.4
		c11.3-11.3,25-17.2,40.2-20C57.5,1.7,66.8,1.1,76.1,0z M79.2,74.7C82.9,74.3,89,73.9,95,73c13.6-2.1,26.3-6.5,37.6-14.6
		c11.3-8.1,12.1-21.3,1.4-30.1c-4.8-3.9-10.1-7.3-15.7-10c-9.3-4.6-19.5-6-29.7-7c-18-1.8-35.7-0.7-52.6,6
		c-6.7,2.7-13.4,6.4-18.9,11c-9.2,7.6-9.7,17.6-1.7,26.5c3,3.4,6.8,6.2,10.8,8.4C41.9,71.9,59.2,74,79.2,74.7z"/>
	<path d="M94.8,59.3c-2.2,0-4.2,0-6.5,0c1.9-9.6,3.6-19,5.6-28.4c0.1-0.7,1.6-1.5,2.5-1.6c4.4-0.1,8.8-0.2,13.1,0.1
		c5,0.4,7.3,3.2,7.3,8.2c0.1,8.1-5.4,13.6-13.5,13.7C96.7,51.4,96.7,51.4,94.8,59.3z M97.9,46.3c3.1-0.4,5.6-0.3,7.8-1.1
		c3.1-1,4.9-6,3.5-8.8c-0.9-1.7-6.4-3.1-8.5-1.9c-0.5,0.3-1,1.1-1.1,1.7C99.1,39.2,98.6,42.3,97.9,46.3z"/>
	<path d="M65.8,42.4c-3.4,6.8-8.9,9.8-16.4,8.9c-2.4-0.3-3.9,0.3-4.4,3c-1.1,5.6-1.2,5.5-7.4,4.8c1.8-9.1,3.5-18.3,5.3-27.4
		c0.4-1.9,1.3-2.7,3.3-2.6c3.4,0.1,6.7,0,10.1,0c7.4,0.1,9.7,2.5,9.7,10c0,1.1-0.1,2.2-0.2,3.3L65.8,42.4z M47.2,46.3
		c3-0.4,5.5-0.4,7.8-1.1c2.8-0.8,4.7-4.8,3.9-7.7c-1-3.9-4.3-3-7-3.3c-3.9-0.4-3,2.8-3.4,4.9C48,41.2,47.7,43.3,47.2,46.3z"/>
	<path d="M65.8,42.5c1.2-5.3,2.4-10.7,3.5-16c1.2-5.7,1.2-5.7,7.5-5c-0.2,1.2-0.3,2.3-0.5,3.5c-0.2,1.2-0.4,2.4-0.6,4.3
		c2.4,0,4.4-0.1,6.5,0c6.5,0.2,8.6,2.8,7.5,9c-0.7,4.2-1.5,8.3-2.3,12.8c-2.3,0-4.5,0-7,0c0.9-4.4,1.7-8.6,2.6-12.9
		c0.4-2,0.2-3.8-2.2-3.7c-2.2,0.2-5.6-2.1-6.5,1.9c-1.2,4.8-2,9.7-3,14.7c-2.3,0-4.4,0-6.5,0c0.4-3,0.8-5.9,1.2-8.7
		C65.8,42.4,65.8,42.5,65.8,42.5z"/>
</g>
</svg>
