<?xml version="1.0" encoding="utf-8"?>
<svg version="1.1" xmlns="http://www.w3.org/2000/svg" xmlns:xlink="http://www.w3.org/1999/xlink" x="0px" y="0px"
	 viewBox="0 0 64 64" enable-background="new 0 0 64 64" xml:space="preserve">
	 <g>
<path fill="#fff" d="M42,61.3h-4.9c0-8.3-7-15.1-15.6-15.1S5.9,52.9,5.9,61.3H0.9c0-11.1,9.2-20.1,20.5-20.1
	C32.8,41.2,42,50.2,42,61.3z"/>
<path fill="#fff" d="M21.5,39.6C14,39.6,7.9,33.5,7.9,26c0-7.5,6.1-13.6,13.5-13.6C28.9,12.5,35,18.6,35,26S28.9,39.6,21.5,39.6z
	 M21.5,17.4c-4.7,0-8.6,3.9-8.6,8.6s3.9,8.6,8.6,8.6c4.8,0,8.6-3.9,8.6-8.6S26.2,17.4,21.5,17.4z"/>
	 <path fill="none" stroke="#fff" stroke-width="5" stroke-miterlimit="10" d="M34,48 52.9 17.2" />
	 </g>
</svg>
