<?xml version="1.0" encoding="utf-8"?>
<!-- Generator: Adobe Illustrator 18.0.0, SVG Export Plug-In . SVG Version: 6.00 Build 0)  -->
<!DOCTYPE svg PUBLIC "-//W3C//DTD SVG 1.1//EN" "http://www.w3.org/Graphics/SVG/1.1/DTD/svg11.dtd">
<svg version="1.1" id="Calque_1" xmlns="http://www.w3.org/2000/svg" xmlns:xlink="http://www.w3.org/1999/xlink" x="0px" y="0px"
	 viewBox="0 0 57 47.7" enable-background="new 0 0 57 47.7" xml:space="preserve">
<path fill="#FFFFFF" d="M52,44.1c-15.7,0-31.3,0-47,0l8.1-24.4c0.1-0.3,0.2-0.5,0.6-0.5c2,0,4,0,6,0c0.4,0,0.7,0,1.2,0
	c-0.6-1.1-1.1-2.1-1.6-3.1c-0.2-0.3-0.4-0.4-0.7-0.4c-2.5,0-4.9,0-7.4,0c-0.4,0-0.6,0.1-0.7,0.5c-2.9,8.8-5.9,17.6-8.8,26.4
	c-0.5,1.6-1.1,3.3-1.7,4.9c0,0.1,0,0.1,0,0.2c19,0,38,0,57,0c0-0.1,0-0.1,0-0.2c0-0.1-0.1-0.2-0.1-0.2c-0.6-1.9-1.3-3.8-1.9-5.7
	c-2.8-8.5-5.6-16.9-8.5-25.4c-0.1-0.4-0.3-0.5-0.7-0.5c-2.5,0-5,0-7.5,0c-0.3,0-0.5,0.1-0.6,0.4c-0.4,0.8-0.8,1.5-1.2,2.3
	c-0.1,0.3-0.3,0.6-0.4,0.9c2.4,0,4.8,0,7.1,0c0.4,0,0.5,0.1,0.6,0.5L52,44.1z"/>
<path fill="#FFFFFF" d="M46.4,32C46.4,32,46.4,32,46.4,32"/>
<path fill="#FFFFFF" d="M28.5,28.6c-0.5-1-1-2-1.5-2.9c-2.1-4.2-4.3-8.4-6.4-12.6c-2.7-5.3,0.2-11.5,6-12.8C32-1,36.6,2.7,37.3,7.4
	c0.4,2.3-0.2,4.3-1.2,6.4c-2.5,4.7-4.9,9.5-7.3,14.3C28.7,28.2,28.6,28.3,28.5,28.6z M33.9,9c0-2.9-2.3-5.3-5.3-5.4
	c-3,0-5.4,2.4-5.4,5.3c0,2.9,2.4,5.3,5.3,5.3C31.4,14.3,33.8,11.9,33.9,9z"/>
<g>
	<g>
		<path fill="none" stroke="#FFFFFF" stroke-width="4" stroke-miterlimit="10" d="M4.8,35.5c0,0,0.7,0.2,1.9,0.5"/>
		<path fill="none" stroke="#FFFFFF" stroke-width="4" stroke-miterlimit="10" stroke-dasharray="3.8075,3.8075" d="M10.5,36.8
			c5,0.8,12.3,1.1,17.6-2.5c7.8-3.5,5.1-4.4,17.2-2.2"/>
		<path fill="none" stroke="#FFFFFF" stroke-width="4" stroke-miterlimit="10" d="M47.1,32.4c0.6,0.1,1.3,0.2,2,0.4"/>
	</g>
</g>
</svg>
