<?xml version="1.0" encoding="iso-8859-1"?>
<!-- Generator: Adobe Illustrator 16.0.4, SVG Export Plug-In . SVG Version: 6.00 Build 0)  -->
<!DOCTYPE svg PUBLIC "-//W3C//DTD SVG 1.1//EN" "http://www.w3.org/Graphics/SVG/1.1/DTD/svg11.dtd">
<svg version="1.1" id="Capa_1" xmlns="http://www.w3.org/2000/svg" xmlns:xlink="http://www.w3.org/1999/xlink" x="0px" y="0px"
	 width="34.545px" height="30px" viewBox="0 0 34.545 30" style="enable-background:new 0 0 34.545 30;" xml:space="preserve">
<path d="M34.371,10.842c-0.043,0.217-0.045,0.441-0.129,0.646c-0.498,1.202-1.429,2.197-2.116,3.305
	c-0.885,1.414-8.405-1.633-7.435-3.521c0.365-0.698,1.788-2.626,1.896-3.401c0.097-0.691-0.819-1.233-1.664-1.303
	c-2.232-0.18-5.084-0.017-7.453-0.002v0.002c-0.063,0-0.133,0-0.197-0.001c-0.065,0.001-0.135,0.001-0.197,0.001V6.566
	c-2.37-0.015-5.221-0.178-7.453,0.002C8.777,6.637,7.861,7.179,7.959,7.871c0.107,0.775,1.531,2.703,1.896,3.401
	c0.971,1.888-6.551,4.935-7.436,3.521c-0.688-1.107-1.617-2.103-2.115-3.305c-0.084-0.205-0.087-0.43-0.13-0.646
	c-1.103-4.93,3.149-9.96,9.551-10.475c2.446-0.199,4.897-0.311,7.351-0.354V0c0.066,0.002,0.131,0.006,0.197,0.007
	C17.339,0.006,17.404,0.002,17.47,0v0.013c2.453,0.044,4.904,0.155,7.35,0.354C31.222,0.882,35.474,5.913,34.371,10.842z
	 M29.974,27.852C30.044,29.034,29.271,30,28.252,30H6.293c-1.017,0-1.792-0.967-1.722-2.148l0.641-10.784
	c2.327-0.545,5.301-1.969,6.38-3.737c0.601-0.985,0.665-2.094,0.171-3.055c-0.125-0.24-0.359-0.615-0.628-1.033l-0.001-0.002
	c-0.008-0.019-0.008-0.019-0.014-0.032h11.953c-0.006,0.017-0.008,0.02-0.018,0.044c-0.15,0.361-0.201,0.638-0.172,0.847
	c-0.035,0.061-0.082,0.138-0.109,0.188c-0.488,0.948-0.424,2.058,0.177,3.042c1.079,1.769,4.051,3.192,6.378,3.737L29.974,27.852z
	 M21.472,16.659c-2.301-2.301-6.043-2.301-8.345,0c-2.301,2.301-2.301,6.044,0,8.345c2.083,2.083,5.344,2.274,7.651,0.586
	l-1.443-1.442c-1.502,0.922-3.494,0.742-4.794-0.558c-1.521-1.521-1.521-3.995,0.001-5.517c1.521-1.521,3.995-1.521,5.516,0
	c1.294,1.294,1.477,3.273,0.569,4.773l1.445,1.445C23.746,21.985,23.549,18.736,21.472,16.659z"/>
<g>
</g>
<g>
</g>
<g>
</g>
<g>
</g>
<g>
</g>
<g>
</g>
<g>
</g>
<g>
</g>
<g>
</g>
<g>
</g>
<g>
</g>
<g>
</g>
<g>
</g>
<g>
</g>
<g>
</g>
</svg>
