<?xml version="1.0" encoding="utf-8"?>
<!-- Generator: Adobe Illustrator 18.0.0, SVG Export Plug-In . SVG Version: 6.00 Build 0)  -->
<!DOCTYPE svg PUBLIC "-//W3C//DTD SVG 1.1//EN" "http://www.w3.org/Graphics/SVG/1.1/DTD/svg11.dtd">
<svg version="1.1" id="Calque_1" xmlns="http://www.w3.org/2000/svg" xmlns:xlink="http://www.w3.org/1999/xlink" x="0px" y="0px"
	 viewBox="0 0 28 47.2" enable-background="new 0 0 28 47.2" xml:space="preserve">
<path fill="#FFFFFF" d="M20.6,5.9H9.2l0-3.3C9.2,1.2,8,0,6.6,0C5.2,0,4,1.2,4,2.6l0,4.1C1.6,8,0,10.4,0,13.3V27
	c0,4.1,0.7,10.2,1.5,13.7c0.8,3.5,4.8,6.4,8.8,6.4h7.4c4.1,0,8-2.9,8.8-6.6C27.3,37,28,30.7,28,26.7V13.3C28,9.2,24.7,5.9,20.6,5.9z
	 M14,41.5c-1.6,0-2.9-1.3-2.9-2.9c0-1.6,1.3-2.9,2.9-2.9c1.6,0,2.9,1.3,2.9,2.9C16.9,40.2,15.6,41.5,14,41.5z M23.1,22.9
	c0,0.8-0.7,1.5-1.5,1.5H6.4c-0.8,0-1.5-0.7-1.5-1.5v-9.2c0-0.8,0.7-1.5,1.5-1.5h15.2c0.8,0,1.5,0.7,1.5,1.5V22.9z"/>
</svg>
