<?xml version="1.0" encoding="utf-8"?>
<svg version="1.1" xmlns="http://www.w3.org/2000/svg" xmlns:xlink="http://www.w3.org/1999/xlink" x="0px" y="0px"
	 viewBox="0 0 64 64" enable-background="new 0 0 64 64" xml:space="preserve">
	 <g>
        <path fill="#FFFFFF" d="M57.9,53.4c-17.1,0-34,0-51.1,0l8.8-26.5c0.1-0.3,0.2-0.5,0.7-0.5c2.2,0,4.4,0,6.5,0c0.4,0,0.8,0,1.3,0
            c-0.7-1.2-1.2-2.3-1.7-3.4c-0.2-0.3-0.4-0.4-0.8-0.4c-2.7,0-5.3,0-8,0c-0.4,0-0.7,0.1-0.8,0.5c-3.2,9.6-6.4,19.1-9.6,28.7
            c-0.6,1.7-1.2,3.6-1.9,5.3c0,0.1,0,0.1,0,0.2c20.6,0,41.3,0,62,0c0-0.1,0-0.1,0-0.2c0-0.1-0.1-0.2-0.1-0.2c-0.7-2.1-1.4-4.1-2.1-6.2
            c-3-9.2-6.1-18.4-9.2-27.6c-0.1-0.4-0.3-0.5-0.8-0.5c-2.7,0-5.4,0-8.1,0c-0.3,0-0.5,0.1-0.7,0.4c-0.4,0.9-0.9,1.6-1.3,2.5
            c-0.1,0.3-0.3,0.7-0.4,1c2.6,0,5.2,0,7.7,0c0.4,0,0.5,0.1,0.7,0.5L57.9,53.4z"/>
        <path fill="#FFFFFF" d="M51.8,40.3L51.8,40.3"/>
        <path fill="#FFFFFF" d="M32.3,36.6c-0.5-1.1-1.1-2.2-1.6-3.2c-2.3-4.6-4.7-9.1-7-13.7C20.8,14,24,7.2,30.3,5.8
            c5.9-1.4,10.9,2.6,11.6,7.7c0.4,2.5-0.2,4.7-1.3,7c-2.7,5.1-5.3,10.3-7.9,15.5C32.6,36.2,32.5,36.3,32.3,36.6z M38.2,15.3
            c0-3.2-2.5-5.8-5.8-5.9c-3.3,0-5.9,2.6-5.9,5.8s2.6,5.8,5.8,5.8C35.5,21,38.1,18.4,38.2,15.3z"/>
        <path fill="none" stroke="#FFFFFF" stroke-width="4" stroke-miterlimit="10" stroke-dasharray="4,4" d="M9.6,44.9
            c6.9,2.4,16.5,1.8,22.3-2.1c7.7-4.7,9.1-3.9,22-1"/>
     </g>
</svg>
