<?xml version="1.0" encoding="utf-8"?>
<svg version="1.1" id="Calque_1" xmlns="http://www.w3.org/2000/svg" xmlns:xlink="http://www.w3.org/1999/xlink" x="0px" y="0px"
	 viewBox="0 0 64 64" enable-background="new 0 0 64 64" xml:space="preserve">
	 <g>
        <path fill="#FFFFFF" d="M29.9,11H15.2V6.9c0-1.8-1.6-3.4-3.4-3.4S8.5,5,8.5,6.9v5.2c-3.1,1.7-5.1,4.7-5.1,8.5v17.6
            c0,5.2,0.9,13.1,1.9,17.6S11.5,64,16.6,64h9.5c5.2,0,10.3-3.8,11.3-8.5c1-4.4,1.9-12.5,1.9-17.7V20.6C39.3,15.3,35.1,11,29.9,11z
             M21.4,56.8c-2.1,0-3.8-1.7-3.8-3.8s1.7-3.8,3.8-3.8s3.8,1.7,3.8,3.8S23.4,56.8,21.4,56.8z M33,32.9c0,1-0.9,1.9-1.9,1.9H11.6
            c-1,0-1.9-0.9-1.9-1.9V21c0-1,0.9-1.9,1.9-1.9h19.6c1,0,1.9,0.9,1.9,1.9V32.9z"/>
        <path fill="none" stroke="#FFFFFF" stroke-width="3" stroke-miterlimit="10" d="M40.2,11c0,0,5.3,5.7,2.4,14.5"/>
        <path fill="none" stroke="#FFFFFF" stroke-width="3" stroke-miterlimit="10" d="M45.4,6.6c0,0,8.1,8.7,3.7,21.8"/>
        <path fill="none" stroke="#FFFFFF" stroke-width="3" stroke-miterlimit="10" d="M50.7,2.3c0,0,10.7,11.6,4.8,29"/>
     </g>
</svg>
