<svg version="1.1" id="and-passionate" xmlns="http://www.w3.org/2000/svg" xmlns:xlink="http://www.w3.org/1999/xlink" x="0px"
	 y="0px" viewBox="-0.9 -4 59 61.6" enable-background="new -0.9 -4 59 61.6" xml:space="preserve">
<path id="arrow" fill="none" stroke="#FFFFFF" stroke-width="4" stroke-linecap="round" stroke-miterlimit="10" d="M5.6,16.4
	c0.5-0.3,0.5-0.9,0.5-1.4C5.7,9.2,4.2,3.5,1.9-1.7C2-2.1,2.5-2,2.9-1.9c4.3,1.3,8.8,1.6,13.2,1"/>
<path id="arrow-line" fill="none" stroke="#FFFFFF" stroke-width="5" stroke-linecap="round" stroke-miterlimit="10" d="M4-1
	c10.1,13.5,20.2,26.9,30.3,40.5"/>
<path id="letter-p-1" fill="none" stroke="#FFFFFF" stroke-width="3" stroke-linecap="round" stroke-miterlimit="10" d="M0.6,46.4
	c0,0,0.8,0.8,2,0.4c-0.4,1.5-1.6,9.3-1.6,9.3"/>
<path id="letter-p-2" fill="none" stroke="#FFFFFF" stroke-width="3" stroke-linecap="round" stroke-miterlimit="10" d="M2.3,48.6
	c0,0,3.1-2.4,3.3,1.2c-0.3,3.8-3.9,3.1-3.8,2.1"/>
<path id="letter-a" fill="none" stroke="#FFFFFF" stroke-width="3" stroke-linecap="round" stroke-miterlimit="10" d="M11,48.2
	c0,0-3.6-2.5-3.9,3.8C8.2,54.9,11,48.2,11,48.2"/>
<path id="letters-ss" fill="none" stroke="#FFFFFF" stroke-width="3" stroke-linecap="round" stroke-linejoin="round" stroke-miterlimit="10" d="
	M11.6,47.4c0,0-1.6,3.1-0.1,4.9c2.3-0.3,4.2-4.6,4.2-4.6s-2.4-1.8,0.8,4.4c0,0-1.2,2.8-2.3,0.8c0.4-1.5,5.4-3.9,5.7-5.2
	c0,0-2.2-1.8,0.4,4.4c-1.3,2.9-2.2,0.8-2.2,0.8s4.1-3.4,5-4.2"/>
<path id="letter-i" fill="none" stroke="#FFFFFF" stroke-width="3" stroke-linecap="square" stroke-linejoin="bevel" stroke-miterlimit="10" d="
	M22.7,48.5c0.2,0.7-1.4,7.1,2.6,2.7"/>
<path id="letter-i-hat" fill="none" stroke="#FFFFFF" stroke-width="3" stroke-linecap="round" stroke-linejoin="bevel" stroke-miterlimit="10" d="
	M23.2,46.5l1.4-1"/>
<path id="letter-o" fill="none" stroke="#FFFFFF" stroke-width="3" stroke-linecap="round" stroke-linejoin="bevel" stroke-miterlimit="10" d="
	M28.8,47.9c0,0-4.7,0.3-1.8,4.9c5.3-0.7,1.7-5.6,1.7-5.6"/>
<path id="letter-o-to-n" fill="none" stroke="#FFFFFF" stroke-width="3" stroke-linecap="round" stroke-linejoin="bevel" stroke-miterlimit="10" d="
	M28.8,47.4c0,0,2.2,2.8,4,1"/>
<path id="letter-n" fill="none" stroke="#FFFFFF" stroke-width="3" stroke-linecap="round" stroke-linejoin="bevel" stroke-miterlimit="10" d="
	M32.9,48.3c0,0-0.2,4.3-0.2,4.4s3.1-6.5,3.5-4.7c0.4,1.8,0.1,7.6,2.4,3.1"/>
<path id="letter-a2" fill="none" stroke="#FFFFFF" stroke-width="3" stroke-linecap="round" stroke-linejoin="bevel" stroke-miterlimit="10" d="
	M43.4,48c0,0-4.6-2.3-3.6,4.7c2.4-0.3,3.9-5.4,3.9-5.4"/>
<path id="letter-a2-to-t" fill="none" stroke="#FFFFFF" stroke-width="3" stroke-linecap="round" stroke-linejoin="bevel" stroke-miterlimit="10" d="
	M44,47.4c0,0-2.8,8.4,2.1,3.3"/>
<path id="letter-t-1" fill="none" stroke="#FFFFFF" stroke-width="3" stroke-linecap="round" stroke-linejoin="bevel" stroke-miterlimit="10" d="
	M48.2,45.5c0,0-4,10.8,1.4,5.8"/>
<path id="letter-t-mustache" fill="none" stroke="#FFFFFF" stroke-width="3" stroke-linecap="round" stroke-linejoin="bevel" stroke-miterlimit="10" d="
	M45.8,47.3l5.3-0.3"/>
<path id="letter-e" fill="none" stroke="#FFFFFF" stroke-width="3" stroke-linecap="round" stroke-linejoin="bevel" stroke-miterlimit="10" d="
	M50.5,50.7c0,0,5.7-1.3,2.6-3.1c-3.5-0.2-4.1,11,3.4,1.4"/>
</svg>
