<?xml version="1.0" encoding="utf-8"?>
<!-- Generator: Adobe Illustrator 18.0.0, SVG Export Plug-In . SVG Version: 6.00 Build 0)  -->
<!DOCTYPE svg PUBLIC "-//W3C//DTD SVG 1.1//EN" "http://www.w3.org/Graphics/SVG/1.1/DTD/svg11.dtd">
<svg version="1.1" id="Calque_1" xmlns="http://www.w3.org/2000/svg" xmlns:xlink="http://www.w3.org/1999/xlink" x="0px" y="0px"
	 viewBox="0 0 368.9 221.6" enable-background="new 0 0 368.9 221.6" xml:space="preserve">
<path d="M0,115.4c0,0,21,104.3,108.9,106.1c87.8,1.8,0.9-49.4,0.9-49.4"/>
<path d="M21.1,81.4c0,0,2.7,69.5,59.3,79.9s5.7-31.8,5.7-31.8"/>
<polyline points="282.3,94.1 310.4,23.3 258,79.4 276.2,91.6 "/>
<ellipse cx="138.1" cy="193.2" rx="27" ry="18.4"/>
<polygon fill="#808285" points="105.8,106.4 74.1,55.4 131.6,27.4 163.3,78.4 "/>
<polygon fill="#808285" points="192.5,84.4 165.9,53.2 201.4,28.8 227.9,59.9 "/>
<polygon fill="#808285" points="228.9,33.7 204.5,22.2 218.3,0 242.6,11.6 "/>
<rect x="107.4" y="113.9" fill="none" width="261.5" height="72.3"/>
<text transform="matrix(1 0 0 1 113.0558 137.0337)" font-family="'MonoglycerideDemiBold'" font-size="32.93">WebMixingShapes</text>
</svg>
