<svg version="1.1" id="logo-full" xmlns="http://www.w3.org/2000/svg" xmlns:xlink="http://www.w3.org/1999/xlink" x="0px" y="0px"
	 viewBox="0 0 368.9 221.6" enable-background="new 0 0 368.9 221.6" xml:space="preserve">
<path d="M0,115.4c0,0,21,104.3,108.9,106.1c87.8,1.8,0.9-49.4,0.9-49.4"/>
<path d="M21.1,81.4c0,0,2.7,69.5,59.3,79.9s5.7-31.8,5.7-31.8"/>
<polyline points="282.3,94.1 310.4,23.3 258,79.4 276.2,91.6 "/>
<ellipse cx="138.1" cy="193.2" rx="27" ry="18.4"/>
<polygon fill="#808285" points="105.8,106.4 74.1,55.4 131.6,27.4 163.3,78.4 "/>
<polygon fill="#808285" points="192.5,84.4 165.9,53.2 201.4,28.8 227.9,59.9 "/>
<polygon fill="#808285" points="228.9,33.7 204.5,22.2 218.3,0 242.6,11.6 "/>
<g>
	<path d="M133.3,137.1c-0.8,0-1.7-0.2-2.7-0.6c-2.6-1-4.7-2.8-6.3-5.2c-1.6,2.4-3.8,4.2-6.4,5.2c-1,0.4-1.9,0.6-2.7,0.6
		c-1.4,0-2-0.5-2-1.6v-17.7c0-0.4,0.2-0.8,0.5-1.1c0.3-0.3,0.7-0.5,1.1-0.5c0.4,0,0.8,0.2,1.1,0.5s0.5,0.7,0.5,1.1v16
		c1.8-0.5,3.2-1.5,4.4-3c1.2-1.5,1.8-3.1,1.8-4.8c0-0.4,0.2-0.8,0.5-1.1c0.3-0.3,0.7-0.5,1.1-0.5c0.4,0,0.8,0.2,1.1,0.5
		s0.5,0.7,0.5,1.1c0,1.7,0.6,3.3,1.8,4.8c1.2,1.5,2.7,2.5,4.4,3v-16c0-0.4,0.2-0.8,0.5-1.1c0.3-0.3,0.7-0.5,1.1-0.5
		c0.4,0,0.8,0.2,1.1,0.5s0.5,0.7,0.5,1.1v17.7C135.3,136.5,134.7,137.1,133.3,137.1z"/>
	<path d="M141.8,130.5c0.4,1.1,1.1,1.9,1.9,2.5c0.9,0.6,1.9,0.9,2.9,0.9c0.1,0,0.5,0,1,0c0.4,0,0.7,0,1,0c0.4,0,0.8,0.2,1.1,0.5
		c0.3,0.3,0.5,0.7,0.5,1.1c0,0.8-0.4,1.3-1.3,1.5c-0.4,0.1-1.2,0.1-2.4,0.1c-2.3,0-4.3-0.8-5.9-2.5s-2.5-3.6-2.5-5.9
		c0-2.3,0.8-4.3,2.5-6s3.6-2.5,5.9-2.5c1.7,0,3.3,0.5,4.7,1.4c1.4,0.9,2.5,2.2,3.1,3.8c0.3,0.8,0.5,1.6,0.6,2.4c0,0.1,0,0.9,0,2.5
		H141.8z M146.6,123.6c-1.1,0-2.1,0.3-3,1s-1.5,1.5-2,2.7h9.5C150.4,124.8,148.9,123.6,146.6,123.6z"/>
	<path d="M164.7,137.2c-2.3,0-4.3-0.8-5.9-2.5c-1.6-1.7-2.5-3.7-2.5-6v-13.2c0-0.4,0.2-0.8,0.5-1.1c0.3-0.3,0.7-0.4,1.1-0.4
		c0.4,0,0.8,0.2,1.2,0.5c0.3,0.3,0.5,0.7,0.5,1.1v6.5c1.7-1.3,3.4-1.9,5.1-1.9c2.3,0,4.3,0.8,5.9,2.5c1.6,1.7,2.5,3.7,2.5,6
		c0,2.3-0.8,4.4-2.5,6C169,136.3,167,137.2,164.7,137.2z M164.8,123.3c-1.4,0-2.6,0.5-3.6,1.5c-1,1-1.5,2.3-1.5,3.7
		c0,1.5,0.5,2.7,1.5,3.8s2.2,1.5,3.6,1.5c1.4,0,2.7-0.5,3.7-1.5c1-1,1.5-2.3,1.5-3.8c0-1.5-0.5-2.7-1.5-3.7
		C167.4,123.8,166.2,123.3,164.8,123.3z"/>
	<path d="M194.8,137.1c-0.4,0-0.8-0.2-1.1-0.5s-0.5-0.7-0.5-1.1v-16c-1.8,0.5-3.2,1.4-4.4,2.9c-1.2,1.5-1.8,3.1-1.8,4.8
		c0,0.4-0.2,0.8-0.5,1.1c-0.3,0.3-0.7,0.5-1.1,0.5c-0.4,0-0.8-0.1-1.1-0.4c-0.3-0.3-0.5-0.7-0.5-1.1c0-1.7-0.6-3.3-1.8-4.8
		c-1.2-1.5-2.7-2.5-4.4-3v16c0,0.4-0.2,0.8-0.5,1.1c-0.3,0.3-0.7,0.5-1.1,0.5c-0.4,0-0.8-0.2-1.1-0.5c-0.3-0.3-0.5-0.7-0.5-1.1
		v-17.7c0-1.1,0.7-1.6,2-1.6c0.8,0,1.7,0.2,2.7,0.6c2.6,1,4.7,2.8,6.3,5.2c1.6-2.5,3.8-4.2,6.4-5.2c1-0.4,1.9-0.6,2.7-0.6
		c1.4,0,2.1,0.5,2.1,1.6v17.7c0,0.4-0.2,0.8-0.5,1.1S195.3,137.1,194.8,137.1z"/>
	<path d="M200.5,118.7c-0.4,0-0.8-0.2-1.2-0.5c-0.4-0.3-0.7-0.7-0.7-1.1c0-0.4,0.2-0.7,0.6-1.1c0.4-0.4,0.8-0.6,1.2-0.6
		c0.4,0,0.8,0.2,1.2,0.5c0.4,0.3,0.7,0.7,0.7,1.1c0,0.4-0.2,0.7-0.7,1.1C201.3,118.5,200.9,118.7,200.5,118.7z M200.5,137.2
		c-0.4,0-0.8-0.2-1.2-0.6c-0.4-0.4-0.6-0.7-0.6-1.1v-13.7c0-0.4,0.2-0.8,0.7-1.1c0.4-0.3,0.8-0.5,1.2-0.5c0.4,0,0.8,0.2,1.2,0.5
		c0.4,0.4,0.7,0.7,0.7,1.1v13.7c0,0.4-0.2,0.8-0.7,1.1C201.3,137,200.9,137.2,200.5,137.2z"/>
	<path d="M220.2,121.7l-0.1,0.3c0,2.8-1.2,5-3.6,6.8c1.8,1.3,3,3.1,3.6,5.5l0.2-0.5v0.3c0.1,1.9-0.5,2.9-1.5,2.9
		c-0.4,0-0.7-0.1-1-0.4c-0.3-0.3-0.4-0.6-0.4-1v-0.2c0-1.4-0.5-2.6-1.6-3.7c-1-1-2.3-1.5-3.8-1.5c-1.4,0-2.6,0.5-3.6,1.4
		s-1.6,2-1.7,3.4l0,0.6c0,0.4-0.1,0.7-0.4,1c-0.3,0.3-0.6,0.4-1,0.4c-0.7,0-1.2-0.4-1.5-1.1v-0.1l-0.1,0l0.1-0.3
		c0-2.8,1.3-5.1,3.8-6.8c-1.9-1.3-3.1-3.1-3.6-5.4l-0.2,0.5v-0.4c-0.1-1.9,0.5-2.9,1.5-2.9c0.4,0,0.7,0.1,1,0.4
		c0.3,0.3,0.4,0.6,0.4,1v0.2c0,1.4,0.5,2.6,1.6,3.6c1,1,2.3,1.5,3.7,1.5c1.3,0,2.5-0.5,3.5-1.4c1-0.9,1.6-2,1.7-3.3V122
		c0-0.4,0.1-0.7,0.4-1c0.3-0.3,0.6-0.5,1.1-0.5C219.5,120.5,220,120.8,220.2,121.7L220.2,121.7z"/>
	<path d="M223.9,118.7c-0.4,0-0.8-0.2-1.2-0.5c-0.4-0.3-0.7-0.7-0.7-1.1c0-0.4,0.2-0.7,0.6-1.1c0.4-0.4,0.8-0.6,1.2-0.6
		c0.4,0,0.8,0.2,1.2,0.5c0.4,0.3,0.7,0.7,0.7,1.1c0,0.4-0.2,0.7-0.7,1.1C224.7,118.5,224.3,118.7,223.9,118.7z M223.9,137.2
		c-0.4,0-0.8-0.2-1.2-0.6c-0.4-0.4-0.6-0.7-0.6-1.1v-13.7c0-0.4,0.2-0.8,0.7-1.1c0.4-0.3,0.8-0.5,1.2-0.5c0.4,0,0.8,0.2,1.2,0.5
		c0.4,0.4,0.7,0.7,0.7,1.1v13.7c0,0.4-0.2,0.8-0.7,1.1C224.6,137,224.2,137.2,223.9,137.2z"/>
	<path d="M242,137.2c-0.4,0-0.8-0.1-1.1-0.4c-0.3-0.3-0.5-0.7-0.5-1.1v-6.5c0-1.4-0.5-2.6-1.5-3.6c-1-1-2.2-1.5-3.6-1.5
		c-1.4,0-2.6,0.5-3.6,1.5c-1,1-1.5,2.2-1.5,3.6c0,0,0,2.1,0,6.4c0,0.5-0.2,0.9-0.5,1.2s-0.7,0.5-1.2,0.5c-0.4,0-0.8-0.1-1.1-0.4
		c-0.3-0.3-0.5-0.7-0.5-1.1v-6.6c0-2.3,0.8-4.3,2.4-5.9s3.6-2.5,5.9-2.5c2.3,0,4.3,0.8,5.9,2.5s2.5,3.6,2.5,5.9c0,0,0,2.1,0,6.5
		c0,0.4-0.2,0.8-0.5,1.2C242.9,137,242.5,137.2,242,137.2z"/>
	<path d="M253.3,143.9c-2.3,0-4.3-0.5-5.7-1.4c-1.8-1.1-2.7-2.9-2.7-5.3c0-0.4,0.2-0.8,0.5-1.2c0.3-0.3,0.7-0.5,1.2-0.5
		s0.8,0.2,1.2,0.5c0.3,0.3,0.5,0.7,0.5,1.2c0,1.3,0.5,2.3,1.5,2.8c0.8,0.4,2,0.6,3.6,0.6c1.5,0,2.7-0.4,3.8-1.2
		c1.1-0.9,1.6-2,1.6-3.4v-0.5c-1.7,1.3-3.4,2-5.2,2c-2.3,0-4.3-0.8-5.9-2.5c-1.6-1.7-2.5-3.7-2.5-6c0-2.4,0.8-4.4,2.5-6.1
		c1.6-1.7,3.6-2.5,5.9-2.5s4.3,0.8,6,2.5c1.6,1.7,2.5,3.7,2.5,6.1v7.1c0,2.3-0.9,4.3-2.6,5.8C257.6,143.2,255.6,143.9,253.3,143.9z
		 M253.5,123.6c-1.4,0-2.6,0.5-3.6,1.6c-1,1-1.5,2.3-1.5,3.7c0,1.5,0.5,2.7,1.5,3.7c1,1,2.2,1.6,3.6,1.6c1.4,0,2.6-0.5,3.7-1.6
		c1-1,1.5-2.3,1.5-3.7c0-1.5-0.5-2.7-1.5-3.7C256.2,124.1,255,123.6,253.5,123.6z"/>
	<path d="M276,118.7h-2.4c-1.6,0-3.1,0.6-4.5,1.7c-1.4,1.1-2.3,2.5-2.7,4.2h11v1.3c0,2.9-1,5.5-3.1,7.8c-2.1,2.4-4.6,3.6-7.4,3.6
		c-0.3,0-0.7,0-1.2,0c-0.5,0-0.9,0-1.2,0c-0.4,0-0.8-0.2-1.1-0.5c-0.3-0.3-0.4-0.7-0.4-1.1s0.2-0.8,0.5-1.1c0.3-0.3,0.7-0.5,1.1-0.5
		c0.3,0,0.6,0,1.2,0c0.5,0,0.9,0,1.2,0c1.6,0,3.1-0.6,4.4-1.8c1.3-1.2,2.2-2.6,2.7-4.4h-10.9v-1.6c0-2.9,1-5.4,3.1-7.6
		c2.1-2.2,4.6-3.2,7.4-3.2h2.4c0.4,0,0.8,0.2,1.1,0.5c0.3,0.3,0.5,0.7,0.5,1.1s-0.2,0.8-0.5,1.1C276.8,118.6,276.4,118.7,276,118.7z
		"/>
	<path d="M294.4,137.2c-0.5,0-0.8-0.2-1.2-0.5c-0.3-0.4-0.5-0.8-0.5-1.2v-6.8c0-1.5-0.5-2.7-1.5-3.7c-1-1-2.2-1.5-3.7-1.5
		c-1.4,0-2.6,0.5-3.7,1.5c-1,1-1.5,2.3-1.5,3.7l-0.1,7c0,0.5-0.2,0.8-0.5,1.1s-0.7,0.4-1.1,0.4c-0.4,0-0.8-0.2-1.1-0.5
		c-0.3-0.3-0.5-0.7-0.5-1.2v-20.1c0-0.4,0.2-0.8,0.5-1.1c0.3-0.3,0.7-0.4,1.1-0.4c0.4,0,0.8,0.2,1.2,0.5c0.3,0.3,0.5,0.7,0.5,1.1
		v6.5c1.7-1.3,3.4-1.9,5.1-1.9c2.3,0,4.3,0.8,6,2.5s2.5,3.7,2.5,6v6.8c0,0.4-0.1,0.8-0.4,1.2C295.3,137,294.9,137.2,294.4,137.2z"/>
	<path d="M312.3,137.2c-0.9,0-1.4-0.6-1.5-1.9c-1.6,1.3-3.4,1.9-5.2,1.9c-2.3,0-4.3-0.8-5.9-2.5s-2.5-3.6-2.5-5.9
		c0-2.3,0.8-4.3,2.5-6s3.6-2.5,5.9-2.5c2.3,0,4.3,0.8,6,2.5s2.5,3.6,2.5,6v6.8c0,0.5-0.2,0.8-0.5,1.1
		C313.1,137.1,312.7,137.2,312.3,137.2z M305.6,123.6c-1.4,0-2.6,0.5-3.6,1.5c-1,1-1.5,2.2-1.5,3.6c0,1.4,0.5,2.6,1.5,3.6
		c1,1,2.2,1.5,3.6,1.5c1.4,0,2.7-0.5,3.7-1.5c1-1,1.5-2.2,1.5-3.6c0-1.4-0.5-2.6-1.5-3.6C308.3,124.1,307,123.6,305.6,123.6z"/>
	<path d="M324.1,137.5c-1.8,0-3.5-0.6-5.1-1.9v6.5c0,0.4-0.2,0.8-0.5,1.2c-0.3,0.3-0.7,0.5-1.2,0.5s-0.8-0.1-1.1-0.4
		c-0.3-0.3-0.5-0.7-0.5-1.1v-13.2c0-2.4,0.8-4.4,2.5-6.1c1.6-1.7,3.6-2.5,5.9-2.5c2.3,0,4.3,0.8,6,2.5c1.6,1.7,2.5,3.7,2.5,6.1
		c0,2.3-0.8,4.4-2.5,6C328.4,136.6,326.4,137.5,324.1,137.5z M324.1,123.6c-1.4,0-2.6,0.5-3.6,1.6c-1,1-1.5,2.3-1.5,3.7
		c0,1.5,0.5,2.7,1.5,3.7c1,1,2.2,1.6,3.6,1.6c1.4,0,2.7-0.5,3.7-1.6c1-1,1.5-2.3,1.5-3.7c0-1.5-0.5-2.7-1.5-3.7
		C326.8,124.1,325.6,123.6,324.1,123.6z"/>
	<path d="M337.1,130.5c0.4,1.1,1.1,1.9,1.9,2.5c0.9,0.6,1.9,0.9,2.9,0.9c0.1,0,0.5,0,1,0c0.4,0,0.7,0,1,0c0.4,0,0.8,0.2,1.1,0.5
		s0.5,0.7,0.5,1.1c0,0.8-0.4,1.3-1.3,1.5c-0.4,0.1-1.2,0.1-2.4,0.1c-2.3,0-4.3-0.8-5.9-2.5s-2.5-3.6-2.5-5.9c0-2.3,0.8-4.3,2.5-6
		s3.6-2.5,5.9-2.5c1.7,0,3.3,0.5,4.7,1.4c1.4,0.9,2.5,2.2,3.1,3.8c0.3,0.8,0.5,1.6,0.6,2.4c0,0.1,0,0.9,0,2.5H337.1z M342,123.6
		c-1.1,0-2.1,0.3-3,1c-0.9,0.6-1.5,1.5-2,2.7h9.5C345.8,124.8,344.2,123.6,342,123.6z"/>
	<path d="M354.8,137h-2c-0.4,0-0.8-0.2-1.1-0.5c-0.3-0.3-0.5-0.7-0.5-1.2c0-0.4,0.2-0.8,0.5-1.1s0.7-0.5,1.1-0.5c0.2,0,0.6,0,1,0
		s0.8,0,1,0c1.1,0,2-0.3,2.9-0.9c0.9-0.6,1.5-1.4,1.9-2.5h-8.5v-1.7c0-2.3,0.8-4.3,2.4-5.9c1.6-1.6,3.5-2.5,5.8-2.5h2
		c0.4,0,0.8,0.2,1.1,0.5c0.3,0.3,0.5,0.7,0.5,1.1c0,0.4-0.2,0.8-0.5,1.1s-0.7,0.5-1.1,0.5c-0.2,0-0.6,0-1,0c-0.4,0-0.8,0-1,0
		c-1.1,0-2.1,0.3-2.9,1c-0.9,0.6-1.5,1.5-1.9,2.6h8.5v1.5c0,2.3-0.8,4.3-2.4,5.9S357.1,137,354.8,137z"/>
</g>
</svg>
